/* XPM */
static char *_2062ff164514153ff68bcd56fd0338dOZW1NpiONxYoNkUf[] = {
/* columns rows colors chars-per-pixel */
"42 42 185 2 ",
"   c None",
".  c #010100",
"X  c #0B0003",
"o  c #020A04",
"O  c #150003",
"+  c #190104",
"@  c #1B0009",
"#  c #011105",
"$  c #031B0B",
"%  c #0C0311",
"&  c #0C0B14",
"*  c #0E0018",
"=  c #15061E",
"-  c #0B1F15",
";  c #2B0002",
":  c #2A030D",
">  c #250000",
",  c #340102",
"<  c #390001",
"1  c #38020C",
"2  c #201809",
"3  c #3C0114",
"4  c #350010",
"5  c #03240D",
"6  c #07260D",
"7  c #13200E",
"8  c #052812",
"9  c #0B2713",
"0  c #152B15",
"q  c #093316",
"w  c #063A19",
"e  c #083918",
"r  c #211430",
"t  c #252C3B",
"y  c #430001",
"u  c #4B0001",
"i  c #45030C",
"p  c #4A000A",
"a  c #550103",
"s  c #5A0000",
"d  c #450312",
"f  c #4B0313",
"g  c #450019",
"h  c #51011E",
"j  c #5D001B",
"k  c #5A0A1C",
"l  c #6D0001",
"z  c #660008",
"x  c #740001",
"c  c #7B0004",
"v  c #7B000C",
"b  c #600017",
"n  c #64051D",
"m  c #780318",
"M  c #5F0020",
"N  c #550220",
"B  c #650324",
"V  c #6B0021",
"C  c #7B0025",
"Z  c #770029",
"A  c #084319",
"S  c #124F1E",
"D  c #0A4B21",
"F  c #114920",
"G  c #0F5123",
"H  c #085822",
"J  c #115525",
"K  c #135D29",
"L  c #125827",
"P  c #234D23",
"I  c #25413F",
"U  c #0A6A2A",
"Y  c #18652D",
"T  c #05742D",
"R  c #1A6D36",
"E  c #0F7C33",
"W  c #167634",
"Q  c #177B35",
"!  c #1A7A35",
"~  c #3A6C2E",
"^  c #206D3D",
"/  c #207C3D",
"(  c #437034",
")  c #234043",
"_  c #235648",
"`  c #246F45",
"'  c #456D42",
"]  c #880008",
"[  c #830005",
"{  c #960204",
"}  c #850215",
"|  c #890014",
" . c #85001B",
".. c #8C001B",
"X. c #93001A",
"o. c #960017",
"O. c #9C141C",
"+. c #8E0025",
"@. c #8C002A",
"#. c #850028",
"$. c #9E0223",
"%. c #94012D",
"&. c #9B022D",
"*. c #8D0030",
"=. c #960132",
"-. c #9B0033",
";. c #9E0238",
":. c #871032",
">. c #AB0424",
",. c #A2002E",
"<. c #A4092E",
"1. c #AB0D2D",
"2. c #AD0729",
"3. c #B40C2B",
"4. c #B1052F",
"5. c #A9112A",
"6. c #B3122F",
"7. c #BF102D",
"8. c #A20133",
"9. c #AB0134",
"0. c #A60B31",
"q. c #AD0D32",
"w. c #B50C35",
"e. c #B0003B",
"r. c #B90538",
"t. c #AF1531",
"y. c #B31231",
"u. c #BD1234",
"i. c #BD1638",
"p. c #C21C3E",
"a. c #C01433",
"s. c #D02C4B",
"d. c #D2314F",
"f. c #C53D55",
"g. c #CC4769",
"h. c #DE5676",
"j. c #DE647A",
"k. c #EC667D",
"l. c #0A8438",
"z. c #1B843A",
"x. c #18873A",
"c. c #1A953F",
"v. c #2E8B3D",
"b. c #41933E",
"n. c #2E9F47",
"m. c #349549",
"M. c #1AAC4A",
"N. c #1AA447",
"B. c #1CB44D",
"V. c #20A347",
"C. c #20AD4A",
"Z. c #26A849",
"A. c #30AE4D",
"S. c #22B34D",
"D. c #23BD51",
"F. c #4E9F48",
"G. c #53924F",
"H. c #4EA84C",
"J. c #57A85B",
"K. c #4AB851",
"L. c #52B552",
"P. c #60BE56",
"I. c #1AC051",
"U. c #2AC354",
"Y. c #32C857",
"T. c #2ED05B",
"R. c #4EC759",
"E. c #56C458",
"W. c #62C458",
"Q. c #64CD5C",
"!. c #6ED761",
"~. c #53E063",
"^. c #6DE065",
"/. c #71F36E",
"(. c #DC7386",
"). c #ED6385",
"_. c #E37286",
"`. c #FC7F9B",
"'. c #F78CA2",
"]. c #FA91A3",
"[. c #F0A0AC",
"{. c #FFA8B7",
"}. c #F7AAB2",
"|. c #FFBDC8",
" X c #FFE6E8",
/* pixels */
"                                o o               . . o o .                         ",
"                              . . . .           . . . . . . .                       ",
"                            . o 5 5 . .     . . . # $ 7 0 8 . .                     ",
"                          . . e D.D.e . . . . . # W N.K.Q.C.$ . o                   ",
"                          . . P /.^.v.w . . Y E K P.!.~.Z.q o .                     ",
"                            . 7 ( H.A.w . J B.Y.L.R.F.n.U . .                       ",
"                              . . D z.F q B.U.L.E.M.l.x.Y . .                       ",
"                                . . F V.S.B.W.E.M.S.S.V.L . .                       ",
"                                . . A M.T.W.K.C.M.S.V.J o .                         ",
"                              . . = ^ U S R.T.I.U.N.G o .                           ",
"                            . . . I R 9 % T x.z.Q J . . o                           ",
"                            . . $ W 5 * t . . . . . .                               ",
"              . . . . . . . . w V.6 . . & r % . . .                                 ",
"            . . . . . . . * ' b.G . . . o ` 9 . .                                   ",
"          . . > , 1 f 3 & _ J.~ . . o . # H e $ .                                   ",
"        . X i O.p.i.7.:.) M.A . .       . . R K . .                                 ",
"      . . b g.}.].s.a 0 / 8 . . .       . . c.W . .                                 ",
"    . X y o.). X|.d.; # 5 < s , . . . X . . c.! . .                                 ",
"  . . O | >.f.(.j.p.m d i } { u . . . . . 3 m.E . . .                               ",
"  . . @ =.w.1.>.>.1.y.a.u.;. .u . . X O ; &.G.T . + . .                             ",
"  . . @ %.8.<.6.1.q.y.y.y.&.9.V . . j 9.$.x ~ H ; 1.: . X                           ",
"  . . @ -.8.%.<.y.6.<.&.&.-.e.j . j g.'.k.5.2 # + u.&.: . .                         ",
"  . . + X.8.=.;.q.q.8.;.-.m 4.B . +.`. X{.p.z f n 1.r.C 4 . .                       ",
"  . . X a ..&.+.+.+.+.%.+.c ..h . C h.[._.y.3.p.u.q.%.e.#.. .                       ",
"      . . s c l l l x l x ,.g . O @.w.t.y.y.q.y.q.-.=.9.C . .                       ",
"        . X u [ x x | 4.5.3 X . X #.,.$.3.y.y.<.-.;.v X.Z . .                       ",
"          . O y < < d B k . . . X -.9.=.0.<.<.8.-. .s o.*.. .                       ",
"          . . . . . . . . . . . X V 8.8.=.-.-.=. .z v +.M . .                       ",
"              . . . . . .       . . n 9.%.&.;. .l l &.h . .                         ",
"                                  . X p ] [ v | 9.3.d X .                           ",
"                                    . . < ; ; 1 N k . .                             ",
"                                      . . . . . . . .                               ",
"                                        . . . . . .                                 ",
"                                                                                    ",
"                                                                                    ",
"                                                                                    ",
"                                                                                    ",
"                                                                                    ",
"                                                                                    ",
"                                                                                    ",
"                                                                                    ",
"                                                                                    "
};
